<?xml version="1.0" encoding="utf-8"?>
<!-- Generator: Adobe Illustrator 23.0.4, SVG Export Plug-In . SVG Version: 6.00 Build 0)  -->
<svg version="1.1" id="Layer_1" xmlns="http://www.w3.org/2000/svg" xmlns:xlink="http://www.w3.org/1999/xlink" x="0px" y="0px"
	 viewBox="0 0 108.669 108.668" enable-background="new 0 0 108.669 108.668" xml:space="preserve">
<g>
	<g>
		<rect x="0.5" y="0.5" fill="#F1F2F2" width="107.669" height="107.668"/>
		<path d="M108.669,108.668H0V0h108.669V108.668z M1,107.668h106.669V1H1V107.668z"/>
	</g>
	<g>
		<g>
			
				<rect x="27.604" y="19.742" fill="#FFFFFF" stroke="#000000" stroke-width="0.7345" stroke-miterlimit="10" width="53.46" height="69.184"/>
			<rect x="55.928" y="78.465" fill="#B3B3B3" width="19.806" height="1.21"/>
			<rect x="55.928" y="71.814" fill="#B3B3B3" width="19.806" height="1.21"/>
			<rect x="55.928" y="65.163" fill="#B3B3B3" width="19.806" height="1.21"/>
			<rect x="55.928" y="58.513" fill="#B3B3B3" width="19.806" height="1.21"/>
			<rect x="55.928" y="51.862" fill="#B3B3B3" width="19.806" height="1.21"/>
			<rect x="55.928" y="45.211" fill="#B3B3B3" width="19.806" height="1.21"/>
			<rect x="32.934" y="78.465" fill="#B3B3B3" width="19.806" height="1.21"/>
			<rect x="32.934" y="71.814" fill="#B3B3B3" width="19.806" height="1.21"/>
			<rect x="32.934" y="65.163" fill="#B3B3B3" width="19.806" height="1.21"/>
			<rect x="32.934" y="58.513" fill="#B3B3B3" width="19.806" height="1.21"/>
			<rect x="32.934" y="51.862" fill="#B3B3B3" width="19.806" height="1.21"/>
			<rect x="32.934" y="45.211" fill="#B3B3B3" width="19.806" height="1.21"/>
			<rect x="32.934" y="38.338" fill="#B3B3B3" width="27.341" height="1.21"/>
			<rect x="32.934" y="35.512" fill="#B3B3B3" width="36.752" height="1.21"/>
			<rect x="42.837" y="28.023" fill="#B3B3B3" width="19.806" height="1.21"/>
			<g>
				<path fill="#B3B3B3" d="M36.814,25.748c1.588,0,2.88,1.292,2.88,2.88s-1.292,2.88-2.88,2.88s-2.88-1.292-2.88-2.88
					S35.226,25.748,36.814,25.748 M36.814,24.748c-2.143,0-3.88,1.737-3.88,3.88s1.737,3.88,3.88,3.88s3.88-1.737,3.88-3.88
					S38.956,24.748,36.814,24.748L36.814,24.748z"/>
			</g>
		</g>
		<g>
			<circle fill="#B3B3B3" stroke="#000000" stroke-width="0.75" stroke-miterlimit="10" cx="73.608" cy="26.188" r="16.96"/>
			<polyline fill="none" stroke="#FFFFFF" stroke-width="3" stroke-miterlimit="10" points="65.111,26.045 70.726,31.482 
				82.105,18.039 			"/>
		</g>
	</g>
</g>
</svg>
