<?xml version="1.0" encoding="utf-8"?>
<!-- Generator: Adobe Illustrator 23.0.4, SVG Export Plug-In . SVG Version: 6.00 Build 0)  -->
<svg version="1.1" id="Layer_1" xmlns="http://www.w3.org/2000/svg" xmlns:xlink="http://www.w3.org/1999/xlink" x="0px" y="0px"
	 viewBox="0 0 108.669 108.668" enable-background="new 0 0 108.669 108.668" xml:space="preserve">
<g>
	<g>
		<rect x="0.5" y="0.5" fill="#F1F2F2" width="107.669" height="107.668"/>
		<path d="M108.669,108.668H0V0h108.669V108.668z M1,107.668h106.669V1H1V107.668z"/>
	</g>
	
		<rect x="10.993" y="16.163" fill="#FFFFFF" stroke="#000000" stroke-width="0.75" stroke-miterlimit="10" width="86.682" height="63.163"/>
	
		<rect x="26.754" y="0.402" transform="matrix(-1.836970e-16 1 -1 -1.836970e-16 98.0772 -10.5917)" stroke="#000000" stroke-width="0.75" stroke-miterlimit="10" width="55.16" height="86.682"/>
	
		<rect x="32.369" y="5.441" transform="matrix(-1.836970e-16 1 -1 -1.836970e-16 98.077 -10.5916)" fill="#FFFFFF" width="43.93" height="76.603"/>
	
		<rect x="40.592" y="79.325" fill="#FFFFFF" stroke="#000000" stroke-width="0.75" stroke-miterlimit="10" width="27.268" height="9.976"/>
	
		<rect x="27.948" y="89.301" fill="#FFFFFF" stroke="#000000" stroke-width="0.75" stroke-miterlimit="10" width="51.799" height="3.204"/>
	<g>
		<g>
			
				<rect x="27.932" y="41.173" fill="#FFFFFF" stroke="#000000" stroke-width="0.75" stroke-miterlimit="10" width="44.581" height="5.994"/>
			<rect x="30.193" y="43.565" fill="#B3B3B3" width="19.806" height="1.21"/>
		</g>
		<g>
			<g>
				<path d="M77.484,42.173c0.96,0,1.74,0.781,1.74,1.74s-0.781,1.74-1.74,1.74s-1.74-0.781-1.74-1.74S76.524,42.173,77.484,42.173
					 M77.484,41.173c-1.513,0-2.74,1.227-2.74,2.74s1.227,2.74,2.74,2.74s2.74-1.227,2.74-2.74S78.997,41.173,77.484,41.173
					L77.484,41.173z"/>
			</g>
			<line fill="none" stroke="#000000" stroke-miterlimit="10" x1="80.737" y1="47.166" x2="78.936" y2="45.365"/>
		</g>
	</g>
</g>
</svg>
